<svg xmlns="http://www.w3.org/2000/svg" xmlns:xlink="http://www.w3.org/1999/xlink" viewBox="0 0 1200 1165.62"><defs><style>.cls-1{fill:url(#New_Gradient_Swatch_4);}</style><linearGradient id="New_Gradient_Swatch_4" x1="600" x2="600" y2="1165.62" gradientUnits="userSpaceOnUse"><stop offset="0" stop-color="#2c2f37"/><stop offset="0.87" stop-color="#1d2127"/></linearGradient></defs><title>Artboard 1</title><g id="Layer_1" data-name="Layer 1"><path class="cls-1" d="M995.54,189.86q17-20.28,33.67-40.57t30.42-36.51q35.7-43,67.35-69.37a167.57,167.57,0,0,1,73-35.3V0H988.23V8.11q10.54,1.63,23.53,4.87a110.22,110.22,0,0,1,23.94,8.93,70.19,70.19,0,0,1,18.66,13.79,27.31,27.31,0,0,1,7.71,19.47q0,13-11.36,32.46a341.9,341.9,0,0,1-21.1,32.45q-21.1,26.78-49.08,63.29t-54.77,67.34q-30-43-51.12-73.43t-41.38-59.63q-14.6-21.09-26-39.76t-11.36-30a24,24,0,0,1,8.11-18.66,57.8,57.8,0,0,1,19.48-11.36,154.82,154.82,0,0,1,25.15-6.49Q862.47,8.93,873,8.11V0H397.57V8.11Q408.1,9.74,421.1,13A110.33,110.33,0,0,1,445,21.91,70,70,0,0,1,463.69,35.7a27.27,27.27,0,0,1,7.71,19.47q0,13-11.36,32.46A342,342,0,0,1,439,120.08q-21.1,26.78-49.09,63.29t-54.77,67.34q-30-43-51.11-73.43L242.6,117.65q-14.61-21.09-26-39.76t-11.36-30a24,24,0,0,1,8.12-18.66,57.66,57.66,0,0,1,19.47-11.36A154.82,154.82,0,0,1,258,11.36q13.78-2.43,24.34-3.25V0H17.85V8.11a146.92,146.92,0,0,1,32.86,14.2,140,140,0,0,1,26.78,21.1,287,287,0,0,1,26,30.42q13.38,17.86,30.42,41.38,13,17.87,34.49,48.28t43.41,61.26q21.9,30.84,39.35,55.58t22.31,31.23q-12.17,14.61-30,36.51t-37.32,45q-19.49,23.11-37.33,44.62t-30,35.29q-36.51,41.38-71.4,67.75T0,576.07v8.11l269.84-1v-8.12c-7.58-1.07-70.52-1.68-79.17-3.85a117.34,117.34,0,0,1-24.34-8.93,58.49,58.49,0,0,1-18.66-14.19,29.58,29.58,0,0,1-7.3-19.88q0-14.61,8.92-30.83a352.73,352.73,0,0,1,20.29-32.46q9.73-13.79,23.93-31.64t29.61-36.92q15.4-19.05,30.84-37.73t28.39-34.07q30.82,43,54.77,77.48t42.6,63.69q13.78,21.11,24.34,40.16t10.55,30.43q0,11.37-7.31,18.66a49.29,49.29,0,0,1-18.66,11.36,133.13,133.13,0,0,1-24.34,6.09c-7.85,1.23-15.22,2.33-22.17,3.34l-72.29-1v8.93c12.45.54,61.73,3.58,69.84,7.1a81.19,81.19,0,0,1,20.69,12.57A73.13,73.13,0,0,1,373.76,618a118.12,118.12,0,0,1,7.3,12.17l9.33,18.66q4.46,8.94,8.93,18.66t9.33,21.09q4.86,11.38,10.54,26.78,20.28,51.93,40.57,103.45T502,925.45q21.91,55.18,45,114.81t49.9,125.36h9.74l39.76-81.14q17.83-46.24,37.72-97.77t40.17-102.64Q744.54,833,764,784.68t35.7-87.22q9.74-23.52,17.45-39T830.56,633a99.92,99.92,0,0,1,10.14-15.42c3-3.51,5.27-6.08,6.89-7.71q2.45-3.23,18.26-13c10.55-6.49,31.91-11.56,46-13.18v-9.16l-108.14,1.25c-7-1.08-14.45-2.58-22.35-4.56A117.13,117.13,0,0,1,757,562.27a58.42,58.42,0,0,1-18.67-14.19A29.63,29.63,0,0,1,731,528.2q0-14.61,8.93-30.83a352.58,352.58,0,0,1,20.28-32.46q9.74-13.79,23.94-31.64t29.61-36.92q15.4-19.05,30.83-37.73T873,324.55q30.83,43,54.77,77.48t42.59,63.69q13.8,21.11,24.34,40.16t10.55,30.43q0,11.37-7.3,18.66a49.37,49.37,0,0,1-18.66,11.36A133.33,133.33,0,0,1,955,572.42c-8.66,1.35-35.57,1.56-43.14,2.63v8.59l281.68.54v-8.11a79.39,79.39,0,0,1-30.83-11,139.72,139.72,0,0,1-26.78-21.9,282.75,282.75,0,0,1-26.37-32.05q-13.38-18.66-29.61-42.19-5.68-8.93-17.85-26t-27.18-38.13q-15-21.09-31.24-44.22t-30-43.41q-13.8-20.26-24.34-34.89T935.5,262.88q12.16-14.59,27.58-33.67T995.54,189.86ZM786.74,661.35q-4.86,23.13-21.09,67.75-21.92,58.42-42.19,112t-36.92,95.74Q669.91,979,659,1007.4t-15,37.32q-8.94-24.33-24.34-62.47t-32.86-82.36q-17.46-44.21-35.29-90.06T519.4,725.45q-14.2-38.52-23.13-65.72t-8.92-34.48A26.87,26.87,0,0,1,495.87,605a62,62,0,0,1,19.47-12.57,96.18,96.18,0,0,1,21.5-6.09c5.8-.89,10.11-1.59,13-2.12h167.3a199.77,199.77,0,0,1,20.54,3.34,134.79,134.79,0,0,1,25.56,8.11A65.11,65.11,0,0,1,783.5,609a27.55,27.55,0,0,1,8.11,20.28Q791.61,638.24,786.74,661.35Zm47.34-313.28q-17.87,21.92-37.33,45t-37.32,44.62q-17.85,21.51-30,35.29Q692.9,514.41,658,540.77q-32.35,24.45-62.6,33.89a77.31,77.31,0,0,1-23.4-9.55,139.68,139.68,0,0,1-26.77-21.9,281.68,281.68,0,0,1-26.37-32.05Q505.48,492.5,489.25,469q-5.69-8.93-17.85-26t-27.18-38.13q-15-21.09-31.24-44.22t-30-43.41q-13.8-20.26-24.34-34.89t-13.79-19.47q12.17-14.59,27.59-33.67t32.45-39.35q17-20.28,33.67-40.57T469,112.78q35.68-43,67.34-69.37A167.51,167.51,0,0,1,608.86,8.22a147.65,147.65,0,0,1,32.52,14.09,140,140,0,0,1,26.77,21.1,287,287,0,0,1,26,30.42q13.38,17.86,30.42,41.38,13,17.87,34.48,48.28t43.41,61.26q21.92,30.84,39.35,55.58t22.32,31.23Q851.92,326.17,834.08,348.07Z"/></g></svg>